# xmcd
#
# Track frame offsets:
#  150
#  9654
#  23623
#  33136
#  44661
#  57448
#  68517
#  79747
#  92400
#  106685
#  121238
#  132525
#  144118
#  155714
#  168552
#  179587
#
# Disc length: 2607 seconds
#
# Revision: 0
# Processed by: cddbd v1.5.2PL0 Copyright (c) Steve Scherf et al.
# Submitted via: AltoMP3_Maker 3.0
#
DISCID=cb0a2d10
DTITLE=Various Artist - Country Classics Vol14
DYEAR=1900
DGENRE=
TTITLE0=Sixteen Tons
TTITLE1=Release Me
TTITLE2=(I've Got A) Humpty Dumpty Heart
TTITLE3=Yonder Comes A Sucker
TTITLE4=How Far Is Heaven
TTITLE5=The Heart You Break May Be Your Own
TTITLE6=I Don't Feel Anything
TTITLE7=Don't Fence Me In
TTITLE8=The Great Medical Menagerist
TTITLE9=In The Pines
TTITLE10=M-I-S-S-I-S-S-I-P-P-I
TTITLE11=Lonesome Indian
TTITLE12=Who's Gonna Shoe My Pretty Little Feet
TTITLE13=Sugar Blues
TTITLE14=Walkin' With The Blues
TTITLE15=The Devil Went Down To Georgia
EXTD=
EXTT0=
EXTT1=
EXTT2=
EXTT3=
EXTT4=
EXTT5=
EXTT6=
EXTT7=
EXTT8=
EXTT9=
EXTT10=
EXTT11=
EXTT12=
EXTT13=
EXTT14=
EXTT15=
PLAYORDER=
